<svg 
    xmlns="http://www.w3.org/2000/svg" viewBox="0 0 450 450">
    <defs>
        <style>.cls-1{fill:#f2f1ed;}.cls-2,.cls-3,.cls-4{fill:none;}.cls-2,.cls-3{stroke:#27304d;stroke-linecap:round;stroke-linejoin:round;}.cls-2{stroke-width:7px;}.cls-3,.cls-4{stroke-width:9px;}.cls-4{stroke:#657CAC;stroke-miterlimit:10;}.cls-5{fill:#27304d;}</style>
    </defs>
    <title>Asset 2</title>
    <g id="Layer_2" data-name="Layer 2">
        <g id="Layer_1-2" data-name="Layer 1">
            <circle class="cls-1" cx="225" cy="225" r="225"/>
            <path class="cls-2" d="M213.13,258.56v3.08a10.92,10.92,0,1,0,21.84,0v-3.08"/>
            <path class="cls-3" d="M264.36,68.27c-10.84,2.69-22.19,1-33.15.17-20.29-1.47-40,0-58.56,8.83-17.31,8.26-32.29,22.16-41,39.49-9.9,19.61-9.88,42.82-9.77,64.3"/>
            <path class="cls-3" d="M142.05,145.06c18-20,48.42-9.85,67-5.6,20.2,4.62,45.66,8.44,65.44,2,15.42-5,31-14.33,39.35-28.87a55.48,55.48,0,0,0,7.11-27.44"/>
            <path class="cls-3" d="M224.55,121.05c14.26,3.26,32.24,6,46.21,1.41,10.88-3.55,21.9-10.12,27.78-20.39a39.17,39.17,0,0,0,5-19.37"/>
            <path class="cls-3" d="M133.05,240.23a9.55,9.55,0,1,1-19.1,0V205.34a9.55,9.55,0,0,1,19.1,0"/>
            <path class="cls-3" d="M141.74,188.06a52.46,52.46,0,0,0,10.09-12.48,48.41,48.41,0,0,0,5.94-24.69"/>
            <polyline class="cls-3" points="253.5 354.5 193.06 388.06 191.5 354.5"/>
            <path class="cls-4" d="M210.38,220.57a13.68,13.68,0,0,1,27.35,0"/>
            <circle class="cls-4" cx="180.13" cy="222.93" r="30.5"/>
            <circle class="cls-4" cx="267.97" cy="222.93" r="30.5"/>
            <circle class="cls-5" cx="180.05" cy="223.06" r="6"/>
            <circle class="cls-5" cx="268.55" cy="223.56" r="6"/>
            <path class="cls-3" d="M227.22,313.06A28.29,28.29,0,0,0,264.06,294"/>
            <path class="cls-3" d="M192.2,172.93a48.37,48.37,0,0,0-24.85,5.17"/>
            <path class="cls-3" d="M315,240.23a9.55,9.55,0,1,0,19.1,0V205.34a9.55,9.55,0,1,0-19.1,0"/>
            <path class="cls-3" d="M255.8,172.93a48.37,48.37,0,0,1,24.85,5.17"/>
            <path class="cls-3" d="M314.33,113.06c10.21,17.42,14.72,41,11.22,68"/>
            <path class="cls-3" d="M305.87,188.07a52.74,52.74,0,0,1-7.25-9.78c-7.85-13.72-7.71-31.29-2.77-46.51"/>
            <path class="cls-3" d="M133.05,263.06v66a25.07,25.07,0,0,0,25,25h33l62,34v-34h35a25.07,25.07,0,0,0,25-25v-89"/>
        </g>
    </g>
</svg>
