<?xml version="1.0" encoding="UTF-8"?>
<svg width="115px" height="40px" viewBox="0 0 115 40" version="1.1" 
    xmlns="http://www.w3.org/2000/svg" 
    xmlns:xlink="http://www.w3.org/1999/xlink">
    <!-- Generator: Sketch 49.3 (51167) - http://www.bohemiancoding.com/sketch -->
    <title>Page 1 Copy 2</title>
    <desc>Created with Sketch.</desc>
    <defs>
        <path d="M28.6907283,0.164227642 C21.2833754,-0.25203252 13.7352521,2.32617886 8.07609244,7.90666667 C2.8537395,13.0569106 0.223879552,19.7928455 0.17942577,26.5427642 L0.167507003,39.8308943 L27.3455182,39.8308943 L94.7194118,39.8308943 C105.840266,39.8308943 114.855364,30.9417886 114.855364,19.975935 C114.855364,9.0097561 105.840266,0.120325203 94.7194118,0.120325203 L28.6907283,0.164227642 Z" id="path-1"></path>
    </defs>
    <g id="Page-1" stroke="none" stroke-width="1" fill="none" fill-rule="evenodd">
        <g id="Page-1-Copy-2">
            <path d="M27.2519809,39 L0,39 L0.0119512065,25.9496438 C0.0565259767,19.3205061 2.69354354,12.705102 7.93011002,7.64701499 C13.6046721,2.16638277 21.1733388,-0.365694865 28.6008522,0.0427974777 L94.8089211,0 C105.960689,0 115,8.73036606 115,19.5 C115,30.2699533 105.960689,39 94.8089211,39 L27.2519809,39 Z" id="Fill-1" fill="#657CAC"></path>
            <g id="Group-5">
                <mask id="mask-2" fill="white">
                    <use xlink:href="#path-1"></use>
                </mask>
                <g id="Clip-4"></g>
                <polygon id="Fill-3" fill="#657CAC" mask="url(#mask-2)" points="-3.54341737 43.5772358 118.565966 43.5772358 118.565966 -3.62569106 -3.54341737 -3.62569106"></polygon>
            </g>
            <g id="Group-16" transform="translate(19.000000, 10.000000)" fill="#FFFFFF">
                <path d="M0.01136,19.1501545 L0.01136,1.67942727 C0.01136,0.646609091 0.5752,0.0856545455 1.61424,0.0856545455 L3.8696,0.0856545455 C4.87856,0.0856545455 5.47216,0.646609091 5.47216,1.67942727 L5.47216,19.1501545 C5.47216,20.1832909 4.87856,20.7439273 3.8696,20.7439273 L1.61424,20.7439273 C0.5752,20.7439273 0.01136,20.1832909 0.01136,19.1501545" id="Fill-6"></path>
                <path d="M19.214176,19.4748591 L12.951776,1.91535909 C12.566176,0.823677273 13.070496,0.0854954545 14.228256,0.0854954545 L16.691616,0.0854954545 C17.641056,0.0854954545 18.234656,0.528404545 18.501536,1.44349545 L22.123296,13.5137227 L25.743776,1.44349545 C26.010976,0.528404545 26.604576,0.0854954545 27.554016,0.0854954545 L30.018016,0.0854954545 C31.175456,0.0854954545 31.709536,0.823677273 31.294176,1.91535909 L25.002016,19.4748591 C24.675296,20.33045 24.081696,20.7437682 23.191456,20.7437682 L21.024736,20.7437682 C20.104416,20.7437682 19.540896,20.33045 19.214176,19.4748591" id="Fill-8"></path>
                <path d="M77.00448,11.4050364 L79.56352,19.0853091 C79.94912,20.1769909 79.4448,20.9148545 78.28704,20.9148545 L75.82368,20.9148545 C74.87392,20.9148545 74.28032,20.4722636 74.01312,19.5571727 L72.08544,12.1168091" id="Fill-10"></path>
                <path d="M47.529792,12.8346909 L45.006912,5.75196364 L42.365312,12.8346909 L47.529792,12.8346909 Z M35.182912,18.9138727 L41.979712,1.32541818 C42.306112,0.4991 42.929472,0.0857818182 43.849472,0.0857818182 L46.164352,0.0857818182 C47.084672,0.0857818182 47.678272,0.4991 48.004352,1.32541818 L54.949632,18.9138727 C55.365312,20.0058727 54.890432,20.7437364 53.702912,20.7437364 L51.299072,20.7437364 C50.408832,20.7437364 49.785472,20.3307364 49.458752,19.5044182 L48.538752,17.0843273 L41.415552,17.0843273 L40.525312,19.4748273 C40.228672,20.3307364 39.635072,20.7437364 38.714752,20.7437364 L36.429632,20.7437364 C35.242432,20.7437364 34.737472,20.0058727 35.182912,18.9138727 Z" id="Fill-12"></path>
                <path d="M71.214496,9.76566818 C72.579616,9.76566818 73.499936,8.58521364 73.499936,7.25712273 C73.499936,5.87016818 72.579616,4.71930455 71.214496,4.71930455 L67.563936,4.71930455 L67.563936,9.76566818 L71.214496,9.76566818 Z M69.700896,13.5727136 L67.563936,13.5727136 L67.563936,19.1501227 C67.563936,20.1832591 66.970336,20.7438955 65.961376,20.7438955 L63.705376,20.7438955 C62.666656,20.7438955 62.102496,20.1832591 62.102496,19.1501227 L62.102496,1.67939545 C62.102496,0.646577273 62.666656,0.0856227273 63.705376,0.0856227273 L71.837536,0.0856227273 C76.467936,0.0856227273 78.990496,3.27316818 78.990496,7.10948636 C78.990496,10.1786682 77.358176,12.4511227 74.538656,13.24785 L69.700896,13.5727136 Z" id="Fill-14"></path>
            </g>
        </g>
    </g>
</svg>
